<?xml version="1.0" encoding="UTF-8"?>
<svg id="Calque_1" data-name="Calque 1" xmlns="http://www.w3.org/2000/svg" viewBox="0 0 1920 1920">
  <defs>
    <style>
      .cls-1 {
        fill: #dd0201;
      }

      .cls-2 {
        fill: #dfa503;
      }

      .cls-3 {
        fill: #f1cc04;
      }

      .cls-4 {
        fill: #0029ad;
      }
    </style>
  </defs>
  <g>
    <g>
      <polygon class="cls-4" points="1036.57 336.99 1026.92 304.73 1010.88 334.36 1036.57 336.99"/>
      <path class="cls-4" d="M745.15,388.09c5.07-1.91,9.11-4.52,12.13-7.84,3.01-3.32,4.88-7.15,5.62-11.47.73-4.32.2-8.88-1.6-13.67-1.82-4.86-4.43-8.65-7.81-11.39-3.38-2.74-7.31-4.37-11.76-4.89-4.46-.52-9.22.17-14.29,2.08l-16.09,6.04,17.72,47.18,16.09-6.04Z"/>
      <polygon class="cls-4" points="340.05 994.62 338.91 968.82 308.4 983.06 340.05 994.62"/>
      <path class="cls-4" d="M1359.14,494.36c4.37.98,8.62.73,12.75-.77,4.13-1.49,7.83-4.2,11.11-8.12,3.33-3.98,5.35-8.12,6.07-12.41.71-4.3.2-8.51-1.54-12.64-1.74-4.13-4.69-7.94-8.85-11.41l-13.18-11.03-32.33,38.66,13.18,11.03c4.16,3.47,8.42,5.71,12.8,6.69Z"/>
      <path class="cls-4" d="M1150.61,355.78l14.5,4.96c5.49,1.88,10,2.09,13.53.64,3.52-1.45,6-4.27,7.43-8.44,1.45-4.25,1.23-8.01-.68-11.28-1.91-3.27-5.61-5.85-11.1-7.73l-14.5-4.96-9.18,26.81Z"/>
      <polygon class="cls-4" points="1579.59 899.03 1581.31 924.79 1611.49 909.86 1579.59 899.03"/>
      <path class="cls-4" d="M1701.32,952.53c-4.27-406.5-335.18-733.13-740.71-733.13-2.66,0-5.27.01-7.94.04-409.17,4.28-737.38,339.46-733.1,748.65,4.27,406.5,335.2,733.13,740.72,733.13,2.67,0,5.27-.01,7.94-.04,409.17-4.3,737.38-339.48,733.08-748.65ZM1552.57,667.42c.87-2.77,2.86-4.88,5.95-6.33,3-1.41,5.91-1.57,8.68-.48,2.77,1.09,4.85,3.06,6.18,5.95,1.39,2.93,1.6,5.79.62,8.55-.97,2.77-2.96,4.86-5.98,6.27-.9.44-1.83.8-2.74,1.1-.93.3-2.08.54-3.45.71-1.36.17-3.24.3-5.59.39l-18,1-4.89-10.41,18.73-3.22c-.04-1.2.12-2.38.49-3.54ZM1538.41,612.74l-57.1,33.01,20.39,35.29-13.27,7.68-29.82-51.57,70.39-40.69,9.41,16.29ZM1485.44,534.79l-11.32,9.97-28.25-32.08-13.24,11.67,24.94,28.32-10.99,9.68-24.94-28.33-14.12,12.44,29.25,33.2-11.34,9.99-41.59-47.25,61.01-53.71,40.59,46.1ZM1360.97,414.06l28.33,23.69c6.76,5.66,11.66,11.95,14.66,18.86,3,6.89,4.02,13.89,3.06,20.95-.97,7.07-4.11,13.79-9.42,20.13-5.27,6.3-11.31,10.55-18.12,12.79-6.81,2.24-13.88,2.47-21.19.73-7.33-1.73-14.39-5.43-21.15-11.09l-28.33-23.69,52.15-62.36ZM1296.48,372.02l-6.92,13.41-37.97-19.58-8.1,15.69,33.55,17.3-6.69,13.01-33.55-17.3-8.62,16.72,39.32,20.28-6.92,13.41-55.94-28.84,37.25-72.24,54.61,28.15ZM1146.95,308.37l33.28,11.39c6.89,2.37,12.44,5.5,16.66,9.45,4.21,3.93,6.95,8.46,8.24,13.56,1.28,5.11.93,10.55-1.06,16.33-1.95,5.72-4.99,10.18-9.12,13.4-4.14,3.21-9.06,5.05-14.79,5.55-.06.01-.12.01-.17.01l8.74,30.54-19.22-6.58-7.43-26.51c-.29-.09-.57-.17-.84-.26l-15.49-5.31-7.33,21.42-17.81-6.1,26.33-76.9ZM1096.28,296.64l18.38,4.06-17.52,79.37-18.36-4.05,17.51-79.39ZM1019.68,285.41l18.49,1.9,27.88,84.57-19.65-2.02-5.4-18.06-37.48-3.85-8.99,16.59-19.18-1.96,44.32-77.18ZM960.89,282.79l1.05,81.27-18.81.25-1.05-81.29,18.81-.23ZM844.77,316.05c1.55-5.34,4.06-10.15,7.55-14.4,3.48-4.27,7.75-7.75,12.8-10.45,5.04-2.7,10.71-4.44,17.01-5.24,6.98-.87,13.46-.46,19.41,1.25,5.95,1.71,11.13,4.67,15.56,8.87l-10.58,12.57c-3.16-2.8-6.53-4.78-10.12-5.92-3.57-1.16-7.36-1.48-11.35-.97-3.76.46-7.14,1.52-10.13,3.14-3,1.63-5.5,3.74-7.52,6.33-2.02,2.6-3.47,5.54-4.34,8.85-.87,3.31-1.06,6.89-.58,10.73.48,3.85,1.55,7.26,3.22,10.25,1.65,2.99,3.79,5.49,6.39,7.5,2.58,2.02,5.54,3.44,8.84,4.27,3.31.84,6.84,1.02,10.61.55,3.99-.51,7.58-1.76,10.76-3.76,3.18-1.99,5.95-4.78,8.32-8.36l13.37,9.57c-3.25,5.17-7.55,9.33-12.89,12.5-5.33,3.16-11.54,5.2-18.59,6.08-6.23.78-12.14.49-17.72-.87-5.6-1.36-10.6-3.69-14.98-6.95-4.4-3.28-8-7.32-10.83-12.11-2.82-4.79-4.62-10.22-5.39-16.29-.75-6.07-.36-11.79,1.19-17.13ZM811.18,299.49l19.12,79.01-18.29,4.41-19.1-79.01,18.28-4.41ZM722.88,326.11c8.26-3.09,16.14-4.25,23.63-3.47,7.49.78,14.07,3.34,19.74,7.65,5.68,4.33,9.96,10.36,12.88,18.12,2.89,7.68,3.61,15.04,2.21,22.06-1.42,7.03-4.69,13.3-9.8,18.81-5.12,5.52-11.82,9.83-20.09,12.93l-34.56,12.98-28.58-76.09,34.58-12.99ZM608.48,382.08l22.48,38.79c3.89,6.69,8.06,10.71,12.51,12.08,4.46,1.35,9.16.6,14.12-2.28,4.95-2.87,7.94-6.59,8.99-11.13,1.03-4.53-.39-10.15-4.28-16.85l-22.48-38.77,16.08-9.32,22.83,39.38c5.98,10.31,7.77,19.87,5.37,28.7-2.41,8.83-8.59,16.13-18.57,21.92-9.99,5.78-19.39,7.53-28.25,5.23-8.85-2.29-16.26-8.59-22.25-18.91l-22.83-39.37,16.27-9.45ZM565.06,411.1l32.49,41.51c6.21,7.93,8.88,15.37,8.03,22.33-.84,6.95-5.05,13.4-12.61,19.31-4.33,3.38-8.94,5.69-13.83,6.91-4.89,1.23-9.65,1.25-14.31.07l.51-16.32c3.57.93,6.81,1.23,9.68.9,2.89-.35,5.46-1.39,7.71-3.16,6.04-4.72,6.3-10.61.75-17.68l-23.82-30.47-22.5,17.61-9.3-11.89,37.22-29.12ZM475.13,489.24l11.38,9.91-28.09,32.23,13.31,11.6,24.81-28.45,11.02,9.61-24.79,28.45,14.18,12.37,29.07-33.36,11.38,9.93-41.37,47.44-61.27-53.42,40.37-46.31ZM390.76,601.83c1.16-5.6,3.45-11.06,6.89-16.4,3.8-5.94,8.27-10.63,13.4-14.09,5.14-3.47,10.73-5.54,16.79-6.26l2.85,16.19c-4.18.64-7.85,1.94-11.03,3.96-3.18,2-5.85,4.7-8.03,8.08-2.05,3.19-3.41,6.46-4.09,9.8-.67,3.34-.65,6.6.04,9.81.7,3.22,2.03,6.21,4.01,9.01,1.99,2.79,4.6,5.23,7.85,7.32,3.27,2.1,6.56,3.47,9.93,4.11,3.37.64,6.65.61,9.86-.09,3.21-.7,6.2-2.05,8.96-4.05,2.76-1.99,5.15-4.59,7.21-7.78,2.18-3.38,3.51-6.94,4.02-10.67.51-3.72.15-7.63-1.07-11.73l15.89-4.14c1.89,5.81,2.32,11.79,1.34,17.9-.99,6.13-3.41,12.19-7.27,18.19-3.38,5.27-7.4,9.61-12.03,13.04-4.63,3.41-9.61,5.76-14.94,7.03-5.33,1.26-10.74,1.45-16.23.54-5.5-.9-10.81-3-15.95-6.31-5.15-3.31-9.28-7.27-12.38-11.89-3.11-4.62-5.17-9.64-6.21-15.04-1.03-5.4-.96-10.92.2-16.52ZM290.34,993.03l-.81-18.57,79.6-39.89.87,19.71-17.08,7.98,1.65,37.64,17.72,6.47.86,19.26-82.81-32.62ZM376.07,884.37c-.73,6.39-2.4,12.15-5.02,17.26-2.64,5.12-6.07,9.45-10.28,12.99-4.21,3.54-8.97,6.13-14.3,7.75s-11.02,2.11-17.1,1.42c-6.08-.67-11.54-2.39-16.37-5.15s-8.91-6.34-12.24-10.77c-3.32-4.41-5.7-9.44-7.14-15.04-1.44-5.62-1.8-11.66-1.07-18.12.8-7.16,2.71-13.47,5.73-18.94,3.02-5.46,7.03-9.9,12-13.33l9.74,13.24c-3.41,2.58-6.05,5.52-7.94,8.81-1.89,3.3-3.06,6.98-3.51,11.06-.44,3.93-.22,7.58.65,10.94.87,3.37,2.32,6.36,4.37,8.96,2.05,2.61,4.59,4.72,7.59,6.34,3.02,1.61,6.44,2.64,10.29,3.08,3.77.42,7.3.16,10.6-.75,3.3-.92,6.26-2.41,8.85-4.5,2.61-2.09,4.72-4.66,6.3-7.71,1.58-3.06,2.6-6.52,3.02-10.36.42-3.69.22-7.34-.58-10.99-.29-1.31-.73-2.63-1.23-3.93l-23.68-2.64,1.9-17.07,32.78,3.64c2.82,4.76,4.79,10.13,5.91,16.14,1.12,6.01,1.36,11.9.73,17.67ZM382.83,830.47l-78.56-20.84,15.75-59.38,14.59,3.88-10.96,41.3,17.07,4.53,9.67-36.48,14.15,3.76-9.68,36.48,18.19,4.82,11.34-42.76,14.59,3.88-16.14,60.83ZM330.51,719l6.23-14.27,61.37-17.27-45.19-19.76,7.45-17.03,74.48,32.56-6.18,14.15-61.44,17.37,45.22,19.77-7.45,17.01-74.48-32.54ZM930.63,1653.16c-.39,1.09-1.83.83-2.89.87-2.38.06-4.33-1.16-6.34-2.12-21.77-10.32-44.53-17.64-68.25-21.8-23.14-4.11-46.48-4.96-69.94-3.01-15.23,1.28-30.27,3.72-45.17,7.17-6.18,1.45-8.68-.09-9.58-6.31-1-6.92-2.95-13.56-4.67-20.29-1.26-4.83-.49-5.76,4.44-6.47,19.84-2.82,39.82-3.69,59.82-2.79,31.28,1.48,61.36,8.25,89.79,21.64,18.13,8.49,35.61,18.07,51.02,31.06.71.57,2.15.99,1.77,2.05ZM948.19,1656.59c-1.7,1.22-2.83-.03-3.98-1.19-7.48-7.43-16.03-13.49-24.52-19.61-24.66-17.72-51.3-31.67-80.05-41.41-17.62-5.99-35.71-10.19-54.2-12.63-8.43-1.12-16.88-1.93-25.45-1.32-3.72.26-7.4.68-11.09,1.25-4.88.74-6.42-.83-5.49-5.7,1.09-5.68,1.29-11.44,1.67-17.22.42-5.79,2.31-7.2,8.14-6.63,9.71.97,19.49,1.48,29.13,3.34,23.4,4.46,45.71,12.09,67.16,22.47,15.34,7.43,29.71,16.55,43.78,26.16.64.42,1.32.83,2.7,1.76-1.29-3.88-3.63-5.79-6-7.59-24.01-18.55-50.24-33.3-78.02-45.32-6.47-2.8-13.28-4.66-20.1-6.44-4.88-1.25-5.97-3.53-4.27-8.24,1.54-4.22,2.86-8.55,4.53-12.72,2.6-6.44,5.1-7.48,11.35-4.5,19.9,9.39,38.55,20.87,56.12,34.11,32.38,24.43,60.01,53.3,82.45,87.12,2.18,3.27,4.3,6.58,6.37,9.87.97,1.51,1.51,3.18-.25,4.46ZM976.24,1655.44c-1.32.83-2.57.7-3.69-.45-1.09-1.16-.93-2.28-.1-3.47,7.5-10.86,14.91-21.83,23.12-32.21,23.52-29.74,50.96-55.2,82.7-76.03,13.01-8.56,26.61-16.18,40.61-22.98,1.28-.65,2.73-1.16,4.14-1.42,2.4-.41,4.38.42,5.02,2.92,1.35,5.14,3.63,9.91,5.2,14.94,1.96,6.23-.19,10-6.98,11.22-9.36,1.64-18.09,5.01-26.71,8.72-24.81,10.64-47.34,25.04-68.02,42.4-1.38,1.13-2.66,2.32-3.98,3.47-.28.29-.57.58-.86.87-.16.19-.48.48-.48.57.32.45.64.13.93-.09.35-.26.7-.52,1.02-.77,8.08-5.04,16.04-10.19,24.17-15.04,24.98-14.75,51.62-25.29,79.95-31.38,11.76-2.53,23.69-4.3,35.77-4.38,5.52-.04,7.29,1.81,7.82,7.27.42,4.27,1.22,8.52,1.83,12.76.26,1.67.32,3.32-.06,4.96-.77,3.34-2.51,4.91-5.88,5.09-1.09.07-2.18.07-3.24-.19-13.14-3.37-26.35-1.73-39.35.32-50.43,7.98-95.43,28.73-136.24,58.95-5.12,3.79-10,7.93-14.6,12.31-.65.61-1.35,1.16-2.09,1.64ZM1197.31,1607.19c-2.1,8.24-4.04,16.55-5.86,24.85-.61,2.85-2.18,3.75-5.28,2.98-7.4-1.8-14.88-3.34-22.41-4.59-19.35-3.3-38.84-4.75-58.45-4.06-24.11.8-47.67,4.78-70.72,11.83-15.15,4.67-29.84,10.57-44.04,17.65-2.82,1.41-3.37,1.51-7.11.84,4.8-4.08,9.51-7.34,14.23-10.64,23.72-16.68,49.14-29.84,76.99-38.09,17.37-5.12,35.07-8.04,53.11-9.16,21.88-1.38,43.66-.68,65.36,2.42,4.04.58,5.23,2.06,4.19,5.97ZM1471.57,1169.85c-27.1,66.02-66.32,125.5-116.56,176.81-50.24,51.3-108.9,91.77-174.33,120.25-67.66,29.47-139.8,44.8-214.44,45.58-2,.01-3.95.03-5.94.03-73.96,0-145.69-14.36-213.21-42.69-65.36-27.43-124.22-66.76-174.93-116.91-50.73-50.17-90.72-108.61-118.87-173.68-29.09-67.28-44.24-138.99-45.01-213.13-.78-74.62,13.02-147.07,41.05-215.33,27.12-66.02,66.34-125.52,116.58-176.82,50.24-51.31,108.9-91.77,174.33-120.26,67.66-29.45,139.8-44.78,214.44-45.56,2-.03,3.95-.03,5.94-.03,73.96,0,145.69,14.36,213.21,42.69,65.36,27.42,124.23,66.76,174.93,116.91,50.73,50.17,90.72,108.59,118.87,173.68,29.09,67.28,44.23,138.99,45.01,213.13.78,74.63-13.04,147.07-41.06,215.33ZM1507.16,730.53l76.7-26.94,20.35,57.96-14.24,5.01-14.17-40.32-16.65,5.85,12.51,35.61-13.82,4.85-12.5-35.61-17.75,6.23,14.66,41.75-14.24,5.01-20.86-59.38ZM1536.1,825.22l64.61-13.31-5.25-25.47,15.02-3.09,14.28,69.38-15.02,3.09-5.24-25.49-64.59,13.31-3.8-18.42ZM1545.79,868.75l83.52,30.72,1.25,18.55-78.68,41.69-1.32-19.7,16.9-8.36-2.53-37.6-17.85-6.07-1.29-19.23ZM1627.39,1035.66l-15.28-1.06,1.79-25.95-65.8-4.54,1.29-18.77,65.8,4.54,1.8-25.95,15.29,1.06-4.88,70.68Z"/>
    </g>
    <g>
      <path d="M799.26,482.98c-6.83,2.75-10.22,4.2-16.95,7.25,7.22,13.67,14.35,27.37,21.4,41.13-5.45,2.43-8.16,3.69-13.54,6.33-7.56-13.48-15.21-26.91-22.95-40.29-6.63,3.31-9.92,5.03-16.44,8.63-1.52-2.38-2.29-3.57-3.82-5.95,16.1-8.63,32.38-16.39,49.22-23.46,1.23,2.55,1.84,3.82,3.06,6.37Z"/>
      <path d="M895.85,498.18c.73,3.17-1.89,5.24-7.81,6.42-10.09,1.96-20.21,4.38-30.09,7.2-5.67,1.59-9.03.95-10.14-2.11-5.01-13.66-10.11-27.28-15.28-40.87-1.17-3.06,1.42-5.62,7.83-7.48,11.24-3.24,22.61-6.05,34.06-8.42,6.71-1.38,10.48-.37,11.27,2.81,1.2,4.85,1.8,7.28,2.98,12.14-6.33,1.14-9.49,1.77-15.78,3.15-1.15-4.06-1.73-6.09-2.89-10.15-8.38,1.84-12.55,2.87-20.84,5.12,4.26,12.53,8.43,25.1,12.5,37.69,7.56-2.01,11.37-2.92,19.01-4.56-1.18-4.34-1.77-6.5-2.96-10.83,6.04-1.3,9.06-1.9,15.14-2.98,1.21,5.14,1.82,7.72,3.01,12.86Z"/>
      <path d="M982.76,497.27c-5.99-.25-8.98-.32-14.97-.34-.46-9.57-.71-14.36-1.25-23.93-8.52,0-12.78.09-21.28.51,1.02,9.53,1.51,14.3,2.44,23.84-5.92.27-8.88.46-14.79.95-2.43-17.65-4.99-35.27-7.69-52.88,6.69-.6,10.04-.84,16.75-1.2,1.03,8.75,1.53,13.13,2.49,21.89,8.65-.43,12.98-.54,21.65-.54-.52-8.79-.8-13.19-1.39-21.98,6.78-.02,10.17.03,16.96.26.49,17.81.85,35.61,1.08,53.42Z"/>
      <path d="M1068.95,510.31c-5.77-1.53-8.67-2.24-14.47-3.55-.49-4.26-.76-6.39-1.33-10.66-7.53-1.63-11.3-2.35-18.87-3.62-1.67,3.83-2.49,5.74-4.11,9.58-5.82-.94-8.74-1.36-14.58-2.08,0-.05,0-.08,0-.14,7.84-17,16.14-33.69,24.95-50.21,7.02,1.16,10.53,1.81,17.51,3.26,4.67,18.91,8.27,38.12,10.89,57.41ZM1052.06,488.87c-1.54-10.16-2.42-15.24-4.39-25.4-4.37,8.97-6.49,13.48-10.61,22.54,6.01,1.03,9.01,1.61,14.99,2.86Z"/>
      <path d="M1151.88,531.12c-1.25,2.88-3.87,4.3-7.82,4.36-3.95.06-8.64-1.2-14.18-3.67-9.41-4.24-19.11-8.12-28.85-11.55,5.03-17.09,9.92-34.22,14.68-51.39,11.06,3.85,21.98,8.12,32.71,12.81,6.29,2.74,10.93,5.92,13.9,9.35,2.97,3.43,3.81,6.62,2.59,9.52-4.3,10.21-8.65,20.39-13.03,30.57ZM1138.1,523.02c3.72-9.53,7.37-19.1,10.97-28.68,1.05-2.79-1.46-5.6-7.58-8.2-4.67-1.98-7.01-2.94-11.71-4.78-4.02,12.61-8.13,25.2-12.33,37.75,4.14,1.65,6.2,2.5,10.3,4.27,5.82,2.5,9.25,2.45,10.35-.37Z"/>
    </g>
    <path d="M984.2,848.99v.83h.75c-.3-.23-.57-.51-.75-.83Z"/>
  </g>
  <g>
    <path d="M754.73,907.55l-91.76,206.53h48.98l18.4-44.26h95.67l18.4,44.26h50.16l-92.64-206.53h-47.21ZM745.45,1033.53l32.74-78.73,32.74,78.73h-65.48Z"/>
    <path d="M913.17,945.91h72.29v98.25c0,22.62-9.74,33.93-29.21,33.93-7.28,0-14.12-1.87-20.51-5.61-6.39-3.73-12.35-9.34-17.85-16.82l-26.55,31.57c7.47,9.84,17.06,17.36,28.77,22.57,11.7,5.21,24.53,7.82,38.5,7.82,24.39,0,42.93-6.29,55.62-18.88,12.69-12.59,19.03-31.67,19.03-57.24v-133.95h-120.08v38.36Z"/>
    <polygon points="1127.66 1075.72 1127.66 1027.93 1223.55 1027.93 1223.55 990.46 1127.66 990.46 1127.66 945.91 1236.24 945.91 1236.24 907.55 1080.16 907.55 1080.16 1114.08 1240.07 1114.08 1240.07 1075.72 1127.66 1075.72"/>
  </g>
  <g>
    <rect x="926.39" y="873.47" width="81.05" height="9.58"/>
    <path d="M1203.17,773.48c-2.98-3.75-5.18-8.14-7.46-12.4-4.28-7.97-8.33-16.05-12.54-24.07-2.7-5.14-5.49-10.22-8.29-15.3-2.31-4.18-4.75-8.29-7.07-12.47-2.93-5.31-5.81-10.65-8.69-15.98-2.87-5.3-5.68-10.63-8.64-15.87-1.38-2.45-3.15-4.69-4.56-7.11-3.32-5.78-6.58-11.61-9.8-17.45-1.38-2.5-2.19-5.44-4.01-7.56-3.57-4.15-3.8-4.72-.1-8.9,4.54-5.15,5.23-12.47,1.65-18.33-2.87-4.73-7.48-6.92-12.35-9.22-10.41-4.89-19.22-1.28-27.93,3.96-2.16,1.29-3.82,3.51-6.05,4.53-3.57,1.61-7.35,3.06-11.47,1.23-1.05-.48-2.51.01-3.79.06-6.92.2-13.86.35-20.79.64-8.27.33-16.53.83-24.81,1.16-1.22.06-2.89.06-3.6-.67-2.95-2.93-5.55-6.21-8.38-9.28-6.97-7.56-16.36-11.48-25.11-16.3-3.37-1.87-5.41-3.92-5.97-7.93-.32-2.37-1.51-5.37-3.32-6.66-7.43-5.34-18.29-3.44-19.99,8.38-.44,3.05-2.31,4.69-4.89,6.01-5.24,2.67-10.86,4.95-15.47,8.49-5.89,4.56-10.9,10.25-16.37,15.34-1.29,1.2-2.93,2.8-4.46,2.86-9.71.42-19.44.42-29.16.64-7.72.17-15.46.06-23.12.83-5.23.52-9.32-.9-13.3-3.96-2.38-1.84-5.07-3.32-7.69-4.83-1.15-.67-2.47-1.32-3.77-1.45-4.67-.48-9.73-2-13.95-.78-5.56,1.61-11.13,4.67-15.5,8.48-7,6.11-8.45,10.96-2.71,18.9.97,1.37,1.76,2.86,2.61,4.3,1.55,2.6.42,4.67-1.19,6.76-1.64,2.13-3.35,4.27-4.59,6.63-2.29,4.37-4.08,8.99-6.42,13.31-1.48,2.7-4.57,4.82-5.23,7.61-1.36,5.88-4.79,10.52-7.52,15.59-2.32,4.34-4.8,8.61-7.21,12.9-1.99,3.53-4.01,7.04-5.97,10.58-2.44,4.41-4.82,8.84-7.24,13.25-.77,1.38-1.71,2.68-2.41,4.11-2.58,5.27-4.86,10.71-7.68,15.85-3.98,7.23-8.42,14.21-12.47,21.4-2.45,4.35-4.76,8.81-6.75,13.38-1.36,3.13-3.48,6.87-2.82,9.75,1.79,7.69,4.02,15.55,7.74,22.46,3.02,5.65,8.13,10.32,12.86,14.86,7.82,7.56,17.07,12.86,27.43,16.45,7.74,2.69,15.24,5.57,23.54,6.47,11.58,1.25,23.05,3.4,34.75,1.52,6.14-.97,12.53-1.05,18.42-2.77,8.68-2.57,17.04-6.2,25.49-9.46,13.24-5.12,22.6-15.37,32.21-25.1,2.47-2.51,3.34-6.63,4.79-10.07,2.24-5.3,4.69-10.52,6.31-16,.67-2.26.06-5.36-1-7.58-2.31-4.83-5.37-9.3-7.95-14.04-4.34-7.94-8.56-15.94-12.76-23.95-.8-1.54-1-3.41-1.86-4.92-3.05-5.36-6.37-10.55-9.39-15.94-2.51-4.49-4.73-9.13-7.11-13.69-3.15-6.01-6.18-12.08-9.58-17.94-2.06-3.57-5.1-6.59-5.3-11.05-.03-.83-.52-1.68-.97-2.42-4.92-8.36-10.12-16.56-14.7-25.11-2.02-3.76-4.11-8.27-3.86-12.31.41-6.68,6.04-10.26,12.86-10.23,13.98.06,27.96-.04,41.95-.06,3.41,0,6.85-.19,10.23.16,1.23.13,2.63,1.36,3.47,2.47,4.83,6.3,9.25,12.95,14.31,19.04,6.78,8.16,12.11,16.43,11.35,27.86-.9,13.53-.84,27.13-.96,40.7-.13,13.95.07,27.91,0,41.86-.09,14.14-.32,28.26-.52,42.4-.17,12.31-.48,24.6-.6,36.91-.09,8.54.03,17.07.06,25.61,0,1.55-.44,2.7-1.28,3.43h45.88v-.83c-.6-.91-.81-2.21-.75-3.96.07-2.06.64-4.11.62-6.17-.01-5.97-.33-11.95-.3-17.91.07-10.83.3-21.67.42-32.5.03-1.77.04-3.54.06-5.31.1-13.89-.03-27.8.12-41.69.19-18.22.54-36.43.83-54.65.15-8.78.93-17.59.26-26.3-.49-6.53.61-12.08,4.33-17.3.78-1.09,1.16-2.47,1.92-3.58,2.09-3.09,4.01-6.37,6.5-9.09,5.08-5.53,10.61-10.6,13.73-17.68,1.32-2.99,3.82-5.3,7.39-5.37,12.47-.22,24.94-.28,37.39-.45,4.63-.07,9.28-.09,13.88-.48,3.48-.29,6.36.75,8.75,3.02,1.42,1.35,2.32,3.22,3.64,4.69,1.77,1.97,1.8,3.73.41,6.02-3.9,6.46-7.61,13.05-11.32,19.63-2.24,3.95-4.31,7.97-6.5,11.93-2.66,4.79-5.49,9.51-8.04,14.36-2.25,4.3-4.04,8.84-6.36,13.11-4.95,9.07-10.15,18-15.15,27.04-2.67,4.82-5.14,9.77-7.75,14.63-3.79,7.03-7.58,14.07-11.47,21.05-2.58,4.66-4.75,9.73-8.16,13.7-3.61,4.2-4.09,8.88-3.27,13.4,1.03,5.6,2.73,11.48,5.75,16.23,4.47,7.04,9.84,13.7,15.78,19.54,6.47,6.34,14.44,11.05,22.89,14.47,6.49,2.61,13.12,5.12,19.93,6.68,7.26,1.65,14.76,2.37,22.19,3.03,5.94.54,11.95.57,17.91.45,3.24-.07,6.46-1.19,9.71-1.35,10.51-.49,20.5-3.57,30.03-7.4,8.85-3.54,17.14-8.67,25.29-13.72,8.19-5.07,14.5-12.19,19.22-20.61,1.95-3.48,3.9-7.01,5.34-10.71,4.27-10.97,4.41-16.9-2.7-25.88ZM856.18,679.41c3.7,6.66,7.58,13.24,11.19,19.93,3.14,5.79,6.04,11.71,9.01,17.58,3.96,7.8,7.81,15.63,11.86,23.37,5.86,11.25,11.83,22.44,17.83,33.62.97,1.81,2.21,3.5,3.47,5.15,2.37,3.15,1.86,4.63-1.97,5.34-.78.15-1.6.15-2.4.22v.45c-11.39,0-22.8-.01-34.2,0-15.26.01-30.51-.01-45.77.13-7.5.07-14.99.7-22.5.75-10.86.07-21.7-.2-32.56-.22-5.18-.01-10.38.28-15.58.32-.86.01-2.21-.25-2.47-.8-.3-.64.28-1.76.61-2.61.86-2.21,1.79-4.38,2.69-6.56.3-.74.39-1.73.93-2.18,5.33-4.57,6.33-11.53,9.67-17.17,1.32-2.26,2.95-4.34,4.27-6.61,2.41-4.11,4.72-8.27,7.04-12.42,4.8-8.59,9.73-17.11,14.37-25.79,6.53-12.24,12.73-24.63,19.31-36.84,2.44-4.54,5.56-8.71,8.29-13.09,1.23-1.97,2.63-3.96,3.32-6.15,1.35-4.3,3.96-6.33,8.55-6.49,5.34-.2,9.61-.12,12.24,6.33,3.37,8.29,8.43,15.88,12.8,23.75ZM1185.52,781.18c-5.34.06-10.7.01-16.04.01,0,.33,0,.68-.01,1.02-13.78,0-27.57,0-41.34.01-14.3.01-28.6-.04-42.88.1-8.54.09-17.04.55-25.58.7-9.01.16-18.03.17-27.06.15-3.5,0-4.14-1.47-2.53-4.57,1.57-3.01,2.77-6.2,4.28-9.23,1.61-3.22,3.22-6.47,5.15-9.52,2.99-4.69,6.24-9.2,9.35-13.82.44-.65.64-1.45.96-2.16,1.76-3.77,3.35-7.63,5.31-11.29,3.32-6.17,6.92-12.19,10.31-18.32,2.8-5.08,5.46-10.22,8.2-15.33,4.63-8.58,9.17-17.22,13.96-25.72,2.87-5.11,6.17-10,9.23-15.01.83-1.35,1.64-2.74,2.22-4.21,2.8-7.05,8.33-10.18,15.78-8.3,4.12,1.05,5.94,4.76,7.81,8.25,1.79,3.34,3.8,6.56,5.63,9.9,1.41,2.57,2.63,5.25,4.01,7.84,3.72,7,7.4,13.99,11.25,20.9,4.82,8.62,9.84,17.11,14.66,25.72,4.05,7.23,7.85,14.6,11.93,21.82,6.4,11.38,12.98,22.66,19.44,34,3.02,5.3,2.02,7.03-4.05,7.08Z"/>
  </g>
  <path d="M984.2,788.43v60.56c-.6-.91-.81-2.21-.75-3.96.07-2.06.64-4.11.62-6.17-.01-5.97-.33-11.95-.3-17.91.07-10.83.3-21.67.42-32.5h.01Z"/>
  <polygon points="978.33 849.82 984.2 849.82 984.2 852.08 978.33 849.82"/>
  <g>
    <rect class="cls-4" x="680.1" y="1205.44" width="179.78" height="26.75"/>
    <rect class="cls-3" x="859.94" y="1205.44" width="186.4" height="26.75"/>
    <rect class="cls-1" x="1046.33" y="1205.44" width="178.27" height="26.75"/>
  </g>
  <g>
    <path class="cls-2" d="M1163.65,1393.1c-1.64,4.79-4.24,4.14-7.45,5.75-40.96,20.69-91.35,37.51-137.32,43.35-7.55.95-21.76-.31-28.01,1.16-.92.21-.31,2.05-2.4,2.33-10.94,1.42-50.18,1.42-61.12,0-2.09-.28-1.48-2.11-2.4-2.33-4.85-1.14-16.23-.38-22.35-1.16-48.17-6.17-93.16-23.7-136.83-41.57-10.57-4.33-13.52-10.83-1.02-14.86,8.13,4.81,16.78,8.14,25.37,11.96,5,2.23,8.21,3.39,13.26,5.4,28.02,11.1,58.07,20.41,88.01,25.44,87.64,14.73,172.78-.23,251.76-35.98,5.66-2.57,10.37-7.56,17.39-6.78l3.1,7.29Z"/>
    <path class="cls-2" d="M729.96,1382.49c-26.14,5.94-58.81,6.92-84.47-2.7-3.94-1.48-11.18-6.43-14.14-7.31-3.48-1.04-6.39,1.7-6.19-3.33l-19.22-11.58-15.52-14.14c0-4.16,25.43-7.13,29.86-7.39,16.68-.94,37.43,1.59,53.36,6.07,12.88,3.63,30.67,11.6,43.1,18.39,9,4.93,17.35,11.45,26.07,16.85.8,3.82-10.26,4.55-12.85,5.15Z"/>
    <path class="cls-2" d="M1324.88,1347.36c-4.85,4.02-9.41,9.73-14.67,13.56-2.62,1.91-14.44,7.56-15.02,8.2-.5.55.06,2.37-.4,2.84-.5.53-11.37,4.52-13.4,5.3-25.41,9.76-50.88,11.49-78.43,8.49-3.26-.36-22.47-3.84-23.15-6.25-1.01-3.59,7.52-8.18,10.3-9.97,38.92-25.01,80.13-36.9,126.88-31.2,3.49.42,11.46-1.68,12.8,3.05,1.47,5.13-2.6,4.06-4.92,5.98Z"/>
    <path class="cls-2" d="M649.09,1316.32c-1.07,1.65-2.17,1.56-3.88,1.75-51.59,5.67-96.2-14.21-124.69-57.22-.95-1.42-.87-4.14-1.54-4.74-1.18-1.05-4.25,1.63-3.11-4.71,7.84.53,16.53-.73,24.28,0,6,.57,17.62,3.8,23.64,5.71,33.86,10.75,61.58,33.24,85.29,59.21Z"/>
    <path class="cls-2" d="M679.11,587.44l-10.75,33.4c-1.08,2.23-10.82,18.64-11.7,19.43-14.19,12.84-26.72,27.44-45.31,37.63-5.42,2.96-19.98,9.55-25.41,10.74-1.88.42-3.68,1.12-5.23-.61-1.1-1.56,3.28-16.64,4.35-19.52,12.4-33.14,38.65-63.24,71.79-76.11,3.54-1.37,13.77-5.32,16.81-5.83,1.75-.29,4.26-.79,5.45.87Z"/>
    <path class="cls-2" d="M1331.96,687.65c-46.35-15.98-75.85-49.6-90.9-94.27-2.9-8.62.8-7.87,8.09-5.83,13.19,3.7,38.29,14.93,47.77,24.01,16.35,15.65,36.67,45.31,41.19,67.69,1.29,6.37,5.31,12.36-6.16,8.41Z"/>
    <path class="cls-2" d="M1400.59,1258.26c-3.14,6.26-2.81,3.29-4.1,5.1-.68.94-.63,3.31-1.71,4.86-26.64,38.67-69.22,53.82-117.37,49.85-2.25-.18-4.91.27-5.02-2.86,3.42-3.36,6.71-6.86,10.09-10.26,15.46-15.52,42.55-35.97,64.19-44.18,4.16-1.58,30.76-9.37,33.53-9.37h23.15c1.15,3.73-1.72,4.76-2.77,6.86Z"/>
    <path class="cls-2" d="M1428.31,834.29c-1.35,2.61-.77,8.33-5.18,7.22l-14.01-39.06c-2.48-4.68-1.22-17.18-2.74-20.47-7.66-16.72-1.82-54.55,2.75-73.01.9-3.66,3.62-7.36,3.49-11.73l5.84-1.31c4.14,7.5,9.17,14.45,12.84,22.24,19.5,41.42,17.6,76.23-2.99,116.11Z"/>
    <path class="cls-2" d="M573.46,1238.97c-2.71-.19-5.76.43-8.42-.05-37.8-6.84-66.13-21.38-87.11-54.02-6.98-10.84-11.72-20.3-16.08-32.53,2.44-6.78,7.38-.11,9.65.57,4.54,1.34,9.79.76,15.73,2.93,23.6,8.65,54.58,32.05,69.98,53.06,3.35,4.58,12.26,17.66,14.44,22.26,1.18,2.5,2.1,4.93,1.81,7.78Z"/>
    <path class="cls-2" d="M1457.55,1149.77c-.93,10.32-5.85,21.17-11.27,29.94-20.91,33.84-50.24,52.76-88.71,59.2-3.35.55-7.24-.23-10.67.06-.19-1.64-.06-2.92.62-4.45,2.81-6.35,15.68-24.45,20.43-30.42,3.45-4.33,8.69-10.09,12.17-13.72,20.25-21.18,48.64-35.4,77.42-40.6Z"/>
    <path class="cls-2" d="M522.65,1150.89c-10.22-1.91-18.69-7.61-27.45-12.62-1.74-.99-10.26-4.17-10.66-4.59-.67-.71-.25-2.95-1.36-3.72-1.23-.84-3.68-.06-4.4-.75-.93-.9-1.15-1.83-4.02-4.34-12.04-10.53-24.34-25.8-30.81-40.37-6.1-13.72-7.27-27.42-11.02-41-1.38-4.97,3.09-6.66,7.24-4.92l30.5,19.22c1.12.81.78,2.79,1.5,3.55,4.34,4.55,7.67,6.6,12.05,12.17,18.17,23.12,31.1,48.76,38.41,77.36Z"/>
    <path class="cls-2" d="M1487.86,1041.71c-.15.9-1.85,2.08-2.03,3.66-2.88,24.78-11.73,53.33-29.72,71.34-5.18,5.18-16.96,11.57-20.75,17.29-10.76,3.64-24.12,14.5-34.93,16.81-4.89,1.04,1.1-8.83,1.29-9.49,12.13-41.78,35.13-80.06,76.3-100.37,2.25-1.11,10.79-4.9,9.86.77Z"/>
    <path class="cls-2" d="M514.64,786.64c-2.11,11.13-6.23,21.47-9.72,32.06-2.27,6.89-4.06,14.73-6.56,21.68-.68,1.36-2.67,1.59-3.79.96-2.79-1.56-6.37-15.12-9.67-17.96-5.91-14.23-10.7-41.93-8.6-57.01,2.93-21.02,8.83-38.09,18.77-56.88,2.12-4.03,7-21.96,12.33-9.11,10.06,24.21,12.08,60.66,7.23,86.25Z"/>
    <path class="cls-2" d="M492.16,1050.41c-2.85.44-4.58-1.56-6.66-2.93-14.74-9.75-32.71-26.71-41.75-41.83-10.99-18.38-18.76-54.68-16.04-75.57.27-2.09,2.11-1.48,2.33-2.4.5-2.12-.24-4.86.02-7.12.68-.8,9.71,6.98,10.71,7.91,3.32,3.02,6.92,7.59,10,10.88,24.4,26.04,35.23,59.79,40.2,94.73.71,4.93.44,11.19,1.18,16.32Z"/>
    <path class="cls-2" d="M1493.73,940.26c.25,23.37-6.72,49.15-18.83,69.35-11.3,18.83-28.68,31.16-46.7,43.06-.7-.97.51-17.1,1.18-19.52,2.53-9.15,4.09-21.37,7.02-31.57,7-24.34,21.42-48.31,38.1-66.95,1.15-1.29,12.77-10.85,13.56-11.23,1.48-.7,2.92-.7,4.5-.59-.97,5.92,1.12,11.86,1.18,17.45Z"/>
    <path class="cls-2" d="M1476.05,884.29c-3.87,15.59-20.73,49.72-33.27,59.32-3.64,2.78-4.89,2.46-5.56-2.14-5.71-39.33-4.84-81.38,16.55-115.59,3.97-6.35,9.54-11.8,13.37-18.26,1.99-1.9,3.66-2.17,6.13-.97-1.84,5.94,2.44,9.4,3.27,13.09,2.77,12.24,2.53,52.4-.47,64.56Z"/>
    <path class="cls-2" d="M484.12,936.79c-.29,2.18-.93,8.95-2.69,9.73-3.06,1.36-2.25-.49-2.9-1.64-2.66-4.71-6.84-8.21-9.88-12.67-20.66-30.32-28.42-57.57-26.21-94.7.63-10.71,3.63-20.65,6.25-31,.84-1.65,2.77-.44,3.63.36,5.66,5.22,12.35,16.15,16.55,22.95,19.54,31.68,20.24,70.55,15.26,106.96Z"/>
    <path class="cls-2" d="M580.3,643.42c-5.52,39.58-17.47,60.67-39.45,92.67-1.38,2.01-1.02,7.09-6.24,5.93-4.37-.97.05-6.53.05-7.21s-1.55-1.98-1.74-3.46c-1.72-13.25-5.32-28.4-3.57-41.78.27-2.1,2.12-1.48,2.33-2.39.84-3.77.33-10.06,1.24-14.38,4.88-22.95,19.33-42.12,35.37-58.33,2.42-2.45,3.7-7.82,9.67-7.83-.06,2.79,1.98,4.5,2.33,7.29.71,5.65.78,23.94.01,29.47Z"/>
    <path class="cls-2" d="M1388.75,717.95c-.5,3.84-1.49,24.19-5.15,24.19-1.47-1.21-2.52-2.77-3.58-4.33-20.91-30.85-34.39-57.82-39.95-97.77-1.63-11.78,3.53-21.78,2.33-33.36,2.43-2.57,14.48,10.68,16.49,12.84,25.68,27.62,34.55,61.93,29.87,98.44Z"/>
    <path class="cls-2" d="M1243.64,1260.94c.32,16.9-1.8,31.58-7.81,47.66-6.61,17.7-29.4,43.09-45.26,54.64-1.56,1.14-3.66.69-4.77,1.45-4.33,2.94-7.72,8.04-13.89,8.66l1.21-14.07c3.62-25.16,17.38-56.02,34.29-76.31,9.23-11.09,21.22-18.84,31.84-28.21,7.74-.14,4.34,3.7,4.4,6.18Z"/>
    <path class="cls-2" d="M747.34,1372.21c-4.8,1.32-4.18-1.74-6.33-3.21-29.5-20.17-51.66-40.35-60.92-75.21-.66-2.49-2.76-7.94-2.76-10.22v-28.8c1.97-.31,3.29.41,4.92,1.3,8,4.36,26.19,21.29,32.35,28.63,10.68,12.71,23.44,35.43,27.98,52.18,1.2,4.4.49,11.34,1.4,15.36.19.86,2.01.69,2.22,1.54,1.04,4.48.19,13.38,1.14,18.43Z"/>
    <path class="cls-2" d="M654.81,1298.31c-.1,2.63,0,12.9-2.87,12.91-5.97-6.02-12.3-11.89-17.51-18.6-21.26-27.37-29.32-55.5-24.73-91.43.49-3.8,4.69-10.3,4.54-15.13,1.25-.31,3.05-.53,4.15.1.64.37,7.92,9.9,9.26,11.62,24.28,31.2,28.82,60.93,27.16,100.54Z"/>
    <path class="cls-2" d="M1285.58,1295.15c-.5.51-2.17.03-3.09,1.05-4.42,4.92-8.48,10.11-13.51,14.49-.73,1.06-1.94-.64-2.11-1.29-.63-2.45-1.15-11.28-1.32-14.48-1.8-34.83,4.78-67.79,26.03-96.03,1.47-1.96,11.61-13.29,12.96-12.99,1.86,3.19,4.26,9.64,4.97,13.11,5.96,29.05-2.12,73.77-23.94,96.13Z"/>
    <path class="cls-2" d="M1419.13,846c-5.31,2.43-7.8-1.13-11.95-2.1-23.04-5.35-42.51-14.93-58.64-32.8-2.34-2.59-5.2-6.93-7.26-9.64-8.17-10.74-15.36-21.86-20.34-34.45,1.73-.23,3.32-1.11,5.11-1.2,10.66-.6,38.29,9.23,47.58,15.12,17.88,11.32,37.89,40.89,44.9,60.66.53,1.48.98,2.81.6,4.41Z"/>
    <path class="cls-2" d="M564.44,852.22l-9.35,31.34c-6.87,7.71-11.25,24.1-18.09,31.02-11.58,11.73-25.64,24.94-41.56,32.4-10.39,4.87-7.98-3.41-6.58-11.09,6.46-35.26,25.35-69,59.49-83.92,2.76-1.21,16.24-5.02,16.08.24Z"/>
    <path class="cls-2" d="M595.61,773.38c-14.52,35.04-44.3,60.68-80.66,70.04-4.08,1.05-9.05,5.67-13.73.93l14.95-33.09c4.61.31,2.33-2.54,4.15-5.37,12.61-19.68,43.76-35.96,66.18-39.94,6.74-1.2,12.27-.19,9.11,7.44Z"/>
    <path class="cls-2" d="M1432.71,948.78c-6.28-.57-10.34-4.02-15.19-6.82-1.76-1.01-4.08-1.39-5.53-2.38-33.17-22.72-43.66-47.34-54.09-85.92-.43-1.6-2.46-2.2-1.96-4.24,12.64-.71,24.39,6.54,34.29,13.73,1.12.81,1.44,2.17,2.23,2.79,1.03.81,2.76.84,4.17,2.02,22.06,18.42,34.35,52.73,36.08,80.81Z"/>
    <path class="cls-2" d="M1423.68,1049.28c-1.75.32-2.61-.17-4-1.07-12.01-7.87-25.97-28.08-32.56-40.82-8.71-16.83-12.85-35.13-15.43-53.46-.84-5.92.72-13.64.07-19.81l19.91,12.82c12.1,10.04,25.58,30.22,30.19,46.03,5.23,17.95,2.29,37.91,1.82,56.32Z"/>
    <path class="cls-2" d="M653.57,696.33c-.26,1.11-12.99,15.16-15.01,17.22-13.66,14-28.11,24.17-47.95,30.5-12.06,3.85-33.6,7.21-45.91,4.85-1.84-.35-3.03-1.32-3.92-2.93-.25-1.54,5.45-7.23,6.74-8.92,20.64-26.67,57.33-43.56,93.08-44.62,2.15-.07,14.01-.53,12.97,3.89Z"/>
    <path class="cls-2" d="M1378.51,748.94c-9.03-.86-20.02,1.16-28.79,0-4.17-.55-25.19-6.6-28.81-8.48-2.37-1.23-2.1-1.99-7-4.24-11.58-5.32-38.05-25.42-43.52-36.69-.99-2.06-2.96-5.52.26-5.93,16.62-2.17,30.89,1.56,47.23,3.62,23.18,9.31,38.69,20.38,53.85,39.85,3.1,3.97,8.22,5.54,6.77,11.87Z"/>
    <path class="cls-2" d="M587.77,1214.94c-.63,2.61-2.25,8.2-3.31,11.88-.78,2.7-3.36,4.54-3.11,7.64-1.72.41-1.81-.26-2.73-1.2-.9-.89-7.69-11.86-8.77-13.82-5.53-9.99-11.58-26.51-13.18-37.62-2.8-19.53.21-41.25,8.68-59.92,1.28-2.81,6.41-13.52,9.78-12.77,2.71,5.93,6.58,12.24,8.86,18.26,10.7,28.19,10.88,58.46,3.79,87.55Z"/>
    <path class="cls-2" d="M547.43,960.59c-1.08,7.27-4.92,23.84-7.22,31.16-.76,2.44-15.78,31.33-17.04,32.67-1.21,1.28-3.31.86-3.72,1.34-.61.69.2,2.77-.46,4.02-.61,1.14-16.91,17.51-18.3,18.41-1.39.89-2.25,1.4-4,1.07-.26-10.4-1.54-20.65-1.19-31.1,1.05-32.18,17.1-63,45.13-79.07,2.61-1.5,3.56-5.09,7.99-3.88.9.88-.69,22.03-1.19,25.36Z"/>
    <path class="cls-2" d="M1359.87,1194.91c-4.01,13.39-7.89,28.25-19.16,37.28-4.89-5.65-4.85-12.76-6.63-19.46-6.41-23.99-9.36-44.96-3.63-69.81,1.89-8.22,7.9-24.69,12.62-31.42.64-.91,1.16-1.86,2.26-2.33,4.51.68,4.17,5.15,5.63,7.74,14.01,24.73,17.05,50.8,8.91,77.99Z"/>
    <path class="cls-2" d="M1398.8,1133.08c-.62,1.38-2.71,1.31-3.18,2.71-.63,1.97-.6,15.23-6.26,7.09-3.39-4.87-13.04-20.92-14.76-25.89-.88-2.53-.21-4.88-.87-7.03-1.1-3.58-4.8-6.41-3.24-12.06l-3.35-.68c-.55-6.5-.43-13.87-1.1-20.22-1.15-10.78-3.8-22.52-2.29-34.01.27-2.09,2.11-1.48,2.32-2.4,1.12-4.81-2.62-17.29,5.54-14.83-.5,4.15,3.09,2.99,5.87,5.93,6.59,6.97,23.7,32.33,24.76,40.82,1.99,15.79,3.54,45.26-3.44,60.55Z"/>
    <path class="cls-2" d="M548.08,1113.66c-2.75,6.83-12.76,26.75-17.49,31.06-1.12,1.02-1.57,2.08-3.41,1.66.07-1.48.28-2.77-.36-4.2-3.4-7.68-8.59-24.48-9.87-33.55-1.7-12.09,3.65-40.09,8.65-51.33,5.03-11.34,13.8-18.17,21.42-27.15,1.16-1.37,1.46-2.7,1.79-4.38l4.34-.19c-2.05,4.62,2.15,7.13,2.24,7.55,4.68,19.76.37,61.46-7.29,80.55Z"/>
  </g>
</svg>